<mxfile host="app.diagrams.net" modified="2024-04-13T17:19:40.618Z" agent="Mozilla/5.0 (Windows NT 10.0; Win64; x64) AppleWebKit/537.36 (KHTML, like Gecko) Chrome/123.0.0.0 Safari/537.36" etag="JLD4FNg6PhS14SVzGBRn" version="24.2.5" type="device">
  <diagram name="Page-1" id="LiVv9weCMw8KT1QFNk5H">
    <mxGraphModel dx="1077" dy="564" grid="1" gridSize="10" guides="1" tooltips="1" connect="1" arrows="1" fold="1" page="1" pageScale="1" pageWidth="827" pageHeight="1169" math="0" shadow="0">
      <root>
        <mxCell id="0" />
        <mxCell id="1" parent="0" />
        <mxCell id="dzqWY5fGvFbRRXMrWcJu-1" value="&lt;b&gt;Room&lt;/b&gt;" style="swimlane;fontStyle=0;childLayout=stackLayout;horizontal=1;startSize=30;horizontalStack=0;resizeParent=1;resizeParentMax=0;resizeLast=0;collapsible=1;marginBottom=0;whiteSpace=wrap;html=1;" parent="1" vertex="1">
          <mxGeometry x="160" y="20" width="200" height="512" as="geometry" />
        </mxCell>
        <mxCell id="dzqWY5fGvFbRRXMrWcJu-2" value="+ id: int" style="text;strokeColor=none;fillColor=none;align=left;verticalAlign=middle;spacingLeft=4;spacingRight=4;overflow=hidden;points=[[0,0.5],[1,0.5]];portConstraint=eastwest;rotatable=0;whiteSpace=wrap;html=1;" parent="dzqWY5fGvFbRRXMrWcJu-1" vertex="1">
          <mxGeometry y="30" width="200" height="30" as="geometry" />
        </mxCell>
        <mxCell id="dzqWY5fGvFbRRXMrWcJu-19" value="+ capacity: int" style="text;strokeColor=none;fillColor=none;align=left;verticalAlign=middle;spacingLeft=4;spacingRight=4;overflow=hidden;points=[[0,0.5],[1,0.5]];portConstraint=eastwest;rotatable=0;whiteSpace=wrap;html=1;" parent="dzqWY5fGvFbRRXMrWcJu-1" vertex="1">
          <mxGeometry y="60" width="200" height="30" as="geometry" />
        </mxCell>
        <mxCell id="dzqWY5fGvFbRRXMrWcJu-3" value="+ rate: decimal" style="text;strokeColor=none;fillColor=none;align=left;verticalAlign=middle;spacingLeft=4;spacingRight=4;overflow=hidden;points=[[0,0.5],[1,0.5]];portConstraint=eastwest;rotatable=0;whiteSpace=wrap;html=1;" parent="dzqWY5fGvFbRRXMrWcJu-1" vertex="1">
          <mxGeometry y="90" width="200" height="30" as="geometry" />
        </mxCell>
        <mxCell id="dzqWY5fGvFbRRXMrWcJu-42" value="+ type: RoomType" style="text;strokeColor=none;fillColor=none;align=left;verticalAlign=middle;spacingLeft=4;spacingRight=4;overflow=hidden;points=[[0,0.5],[1,0.5]];portConstraint=eastwest;rotatable=0;whiteSpace=wrap;html=1;" parent="dzqWY5fGvFbRRXMrWcJu-1" vertex="1">
          <mxGeometry y="120" width="200" height="30" as="geometry" />
        </mxCell>
        <mxCell id="dzqWY5fGvFbRRXMrWcJu-43" value="+ status: RoomStatus" style="text;strokeColor=none;fillColor=none;align=left;verticalAlign=middle;spacingLeft=4;spacingRight=4;overflow=hidden;points=[[0,0.5],[1,0.5]];portConstraint=eastwest;rotatable=0;whiteSpace=wrap;html=1;" parent="dzqWY5fGvFbRRXMrWcJu-1" vertex="1">
          <mxGeometry y="150" width="200" height="30" as="geometry" />
        </mxCell>
        <mxCell id="dzqWY5fGvFbRRXMrWcJu-25" value="+ isCleaned : bool" style="text;strokeColor=none;fillColor=none;align=left;verticalAlign=middle;spacingLeft=4;spacingRight=4;overflow=hidden;points=[[0,0.5],[1,0.5]];portConstraint=eastwest;rotatable=0;whiteSpace=wrap;html=1;" parent="dzqWY5fGvFbRRXMrWcJu-1" vertex="1">
          <mxGeometry y="180" width="200" height="30" as="geometry" />
        </mxCell>
        <mxCell id="xwhf7whDuyqqCBO_zV5I-8" value="+ isAvailable: bool" style="text;strokeColor=none;fillColor=none;align=left;verticalAlign=middle;spacingLeft=4;spacingRight=4;overflow=hidden;points=[[0,0.5],[1,0.5]];portConstraint=eastwest;rotatable=0;whiteSpace=wrap;html=1;" vertex="1" parent="dzqWY5fGvFbRRXMrWcJu-1">
          <mxGeometry y="210" width="200" height="30" as="geometry" />
        </mxCell>
        <mxCell id="xwhf7whDuyqqCBO_zV5I-20" value="" style="line;strokeWidth=1;fillColor=none;align=left;verticalAlign=middle;spacingTop=-1;spacingLeft=3;spacingRight=3;rotatable=0;labelPosition=right;points=[];portConstraint=eastwest;strokeColor=inherit;" vertex="1" parent="dzqWY5fGvFbRRXMrWcJu-1">
          <mxGeometry y="240" width="200" height="8" as="geometry" />
        </mxCell>
        <mxCell id="xwhf7whDuyqqCBO_zV5I-23" value="+ create(int capacity, status: RoomStatus, type: RoomType, isClean: bool, isAvailable: bool): Room" style="text;strokeColor=none;fillColor=none;align=left;verticalAlign=middle;spacingLeft=4;spacingRight=4;overflow=hidden;points=[[0,0.5],[1,0.5]];portConstraint=eastwest;rotatable=0;whiteSpace=wrap;html=1;" vertex="1" parent="dzqWY5fGvFbRRXMrWcJu-1">
          <mxGeometry y="248" width="200" height="62" as="geometry" />
        </mxCell>
        <mxCell id="dzqWY5fGvFbRRXMrWcJu-24" value="- calculateRate(): void" style="text;strokeColor=none;fillColor=none;align=left;verticalAlign=middle;spacingLeft=4;spacingRight=4;overflow=hidden;points=[[0,0.5],[1,0.5]];portConstraint=eastwest;rotatable=0;whiteSpace=wrap;html=1;" parent="dzqWY5fGvFbRRXMrWcJu-1" vertex="1">
          <mxGeometry y="310" width="200" height="30" as="geometry" />
        </mxCell>
        <mxCell id="xwhf7whDuyqqCBO_zV5I-9" value="+ isAvailableFor(startDate: DateTime, endDate: DateTime): bool" style="text;strokeColor=none;fillColor=none;align=left;verticalAlign=middle;spacingLeft=4;spacingRight=4;overflow=hidden;points=[[0,0.5],[1,0.5]];portConstraint=eastwest;rotatable=0;whiteSpace=wrap;html=1;" vertex="1" parent="dzqWY5fGvFbRRXMrWcJu-1">
          <mxGeometry y="340" width="200" height="52" as="geometry" />
        </mxCell>
        <mxCell id="xwhf7whDuyqqCBO_zV5I-10" value="+ markAsClean(): void" style="text;strokeColor=none;fillColor=none;align=left;verticalAlign=middle;spacingLeft=4;spacingRight=4;overflow=hidden;points=[[0,0.5],[1,0.5]];portConstraint=eastwest;rotatable=0;whiteSpace=wrap;html=1;" vertex="1" parent="dzqWY5fGvFbRRXMrWcJu-1">
          <mxGeometry y="392" width="200" height="30" as="geometry" />
        </mxCell>
        <mxCell id="xwhf7whDuyqqCBO_zV5I-12" value="+ markAsDirty(): void" style="text;strokeColor=none;fillColor=none;align=left;verticalAlign=middle;spacingLeft=4;spacingRight=4;overflow=hidden;points=[[0,0.5],[1,0.5]];portConstraint=eastwest;rotatable=0;whiteSpace=wrap;html=1;" vertex="1" parent="dzqWY5fGvFbRRXMrWcJu-1">
          <mxGeometry y="422" width="200" height="30" as="geometry" />
        </mxCell>
        <mxCell id="xwhf7whDuyqqCBO_zV5I-11" value="+ markAsAvailable(): void" style="text;strokeColor=none;fillColor=none;align=left;verticalAlign=middle;spacingLeft=4;spacingRight=4;overflow=hidden;points=[[0,0.5],[1,0.5]];portConstraint=eastwest;rotatable=0;whiteSpace=wrap;html=1;" vertex="1" parent="dzqWY5fGvFbRRXMrWcJu-1">
          <mxGeometry y="452" width="200" height="30" as="geometry" />
        </mxCell>
        <mxCell id="xwhf7whDuyqqCBO_zV5I-13" value="+ markAsUnavailable(): void" style="text;strokeColor=none;fillColor=none;align=left;verticalAlign=middle;spacingLeft=4;spacingRight=4;overflow=hidden;points=[[0,0.5],[1,0.5]];portConstraint=eastwest;rotatable=0;whiteSpace=wrap;html=1;" vertex="1" parent="dzqWY5fGvFbRRXMrWcJu-1">
          <mxGeometry y="482" width="200" height="30" as="geometry" />
        </mxCell>
        <mxCell id="dzqWY5fGvFbRRXMrWcJu-9" value="&lt;i&gt;&amp;lt;&amp;lt;enum&amp;gt;&amp;gt;&lt;/i&gt;&lt;b&gt;&lt;i&gt;&lt;br&gt;&lt;/i&gt;RoomType&lt;/b&gt;" style="swimlane;fontStyle=0;childLayout=stackLayout;horizontal=1;startSize=30;horizontalStack=0;resizeParent=1;resizeParentMax=0;resizeLast=0;collapsible=1;marginBottom=0;whiteSpace=wrap;html=1;" parent="1" vertex="1">
          <mxGeometry x="670" y="160" width="140" height="120" as="geometry" />
        </mxCell>
        <mxCell id="dzqWY5fGvFbRRXMrWcJu-10" value="Simple" style="text;strokeColor=none;fillColor=none;align=left;verticalAlign=middle;spacingLeft=4;spacingRight=4;overflow=hidden;points=[[0,0.5],[1,0.5]];portConstraint=eastwest;rotatable=0;whiteSpace=wrap;html=1;" parent="dzqWY5fGvFbRRXMrWcJu-9" vertex="1">
          <mxGeometry y="30" width="140" height="30" as="geometry" />
        </mxCell>
        <mxCell id="dzqWY5fGvFbRRXMrWcJu-11" value="Double" style="text;strokeColor=none;fillColor=none;align=left;verticalAlign=middle;spacingLeft=4;spacingRight=4;overflow=hidden;points=[[0,0.5],[1,0.5]];portConstraint=eastwest;rotatable=0;whiteSpace=wrap;html=1;" parent="dzqWY5fGvFbRRXMrWcJu-9" vertex="1">
          <mxGeometry y="60" width="140" height="30" as="geometry" />
        </mxCell>
        <mxCell id="dzqWY5fGvFbRRXMrWcJu-12" value="Suite" style="text;strokeColor=none;fillColor=none;align=left;verticalAlign=middle;spacingLeft=4;spacingRight=4;overflow=hidden;points=[[0,0.5],[1,0.5]];portConstraint=eastwest;rotatable=0;whiteSpace=wrap;html=1;" parent="dzqWY5fGvFbRRXMrWcJu-9" vertex="1">
          <mxGeometry y="90" width="140" height="30" as="geometry" />
        </mxCell>
        <mxCell id="dzqWY5fGvFbRRXMrWcJu-13" value="&lt;i&gt;&amp;lt;&amp;lt;enum&amp;gt;&amp;gt;&lt;/i&gt;&lt;b&gt;&lt;i&gt;&lt;br&gt;&lt;/i&gt;RoomStatus&lt;/b&gt;" style="swimlane;fontStyle=0;childLayout=stackLayout;horizontal=1;startSize=30;horizontalStack=0;resizeParent=1;resizeParentMax=0;resizeLast=0;collapsible=1;marginBottom=0;whiteSpace=wrap;html=1;" parent="1" vertex="1">
          <mxGeometry x="830" y="160" width="140" height="180" as="geometry" />
        </mxCell>
        <mxCell id="dzqWY5fGvFbRRXMrWcJu-14" value="New" style="text;strokeColor=none;fillColor=none;align=left;verticalAlign=middle;spacingLeft=4;spacingRight=4;overflow=hidden;points=[[0,0.5],[1,0.5]];portConstraint=eastwest;rotatable=0;whiteSpace=wrap;html=1;" parent="dzqWY5fGvFbRRXMrWcJu-13" vertex="1">
          <mxGeometry y="30" width="140" height="30" as="geometry" />
        </mxCell>
        <mxCell id="dzqWY5fGvFbRRXMrWcJu-15" value="Renovated" style="text;strokeColor=none;fillColor=none;align=left;verticalAlign=middle;spacingLeft=4;spacingRight=4;overflow=hidden;points=[[0,0.5],[1,0.5]];portConstraint=eastwest;rotatable=0;whiteSpace=wrap;html=1;" parent="dzqWY5fGvFbRRXMrWcJu-13" vertex="1">
          <mxGeometry y="60" width="140" height="30" as="geometry" />
        </mxCell>
        <mxCell id="dzqWY5fGvFbRRXMrWcJu-16" value="NeedsRenovation" style="text;strokeColor=none;fillColor=none;align=left;verticalAlign=middle;spacingLeft=4;spacingRight=4;overflow=hidden;points=[[0,0.5],[1,0.5]];portConstraint=eastwest;rotatable=0;whiteSpace=wrap;html=1;" parent="dzqWY5fGvFbRRXMrWcJu-13" vertex="1">
          <mxGeometry y="90" width="140" height="30" as="geometry" />
        </mxCell>
        <mxCell id="dzqWY5fGvFbRRXMrWcJu-17" value="NoIssue" style="text;strokeColor=none;fillColor=none;align=left;verticalAlign=middle;spacingLeft=4;spacingRight=4;overflow=hidden;points=[[0,0.5],[1,0.5]];portConstraint=eastwest;rotatable=0;whiteSpace=wrap;html=1;" parent="dzqWY5fGvFbRRXMrWcJu-13" vertex="1">
          <mxGeometry y="120" width="140" height="30" as="geometry" />
        </mxCell>
        <mxCell id="dzqWY5fGvFbRRXMrWcJu-18" value="Damaged" style="text;strokeColor=none;fillColor=none;align=left;verticalAlign=middle;spacingLeft=4;spacingRight=4;overflow=hidden;points=[[0,0.5],[1,0.5]];portConstraint=eastwest;rotatable=0;whiteSpace=wrap;html=1;" parent="dzqWY5fGvFbRRXMrWcJu-13" vertex="1">
          <mxGeometry y="150" width="140" height="30" as="geometry" />
        </mxCell>
        <mxCell id="dzqWY5fGvFbRRXMrWcJu-20" value="&lt;b&gt;Booking&lt;/b&gt;" style="swimlane;fontStyle=0;childLayout=stackLayout;horizontal=1;startSize=30;horizontalStack=0;resizeParent=1;resizeParentMax=0;resizeLast=0;collapsible=1;marginBottom=0;whiteSpace=wrap;html=1;" parent="1" vertex="1">
          <mxGeometry x="427" y="20" width="193" height="480" as="geometry" />
        </mxCell>
        <mxCell id="dzqWY5fGvFbRRXMrWcJu-21" value="+ id: int" style="text;strokeColor=none;fillColor=none;align=left;verticalAlign=middle;spacingLeft=4;spacingRight=4;overflow=hidden;points=[[0,0.5],[1,0.5]];portConstraint=eastwest;rotatable=0;whiteSpace=wrap;html=1;" parent="dzqWY5fGvFbRRXMrWcJu-20" vertex="1">
          <mxGeometry y="30" width="193" height="30" as="geometry" />
        </mxCell>
        <mxCell id="dzqWY5fGvFbRRXMrWcJu-36" value="+ startDate: datetime" style="text;strokeColor=none;fillColor=none;align=left;verticalAlign=middle;spacingLeft=4;spacingRight=4;overflow=hidden;points=[[0,0.5],[1,0.5]];portConstraint=eastwest;rotatable=0;whiteSpace=wrap;html=1;" parent="dzqWY5fGvFbRRXMrWcJu-20" vertex="1">
          <mxGeometry y="60" width="193" height="30" as="geometry" />
        </mxCell>
        <mxCell id="dzqWY5fGvFbRRXMrWcJu-37" value="+ endDate: datetime" style="text;strokeColor=none;fillColor=none;align=left;verticalAlign=middle;spacingLeft=4;spacingRight=4;overflow=hidden;points=[[0,0.5],[1,0.5]];portConstraint=eastwest;rotatable=0;whiteSpace=wrap;html=1;" parent="dzqWY5fGvFbRRXMrWcJu-20" vertex="1">
          <mxGeometry y="90" width="193" height="30" as="geometry" />
        </mxCell>
        <mxCell id="dzqWY5fGvFbRRXMrWcJu-40" value="+ isPaid: bool" style="text;strokeColor=none;fillColor=none;align=left;verticalAlign=middle;spacingLeft=4;spacingRight=4;overflow=hidden;points=[[0,0.5],[1,0.5]];portConstraint=eastwest;rotatable=0;whiteSpace=wrap;html=1;" parent="dzqWY5fGvFbRRXMrWcJu-20" vertex="1">
          <mxGeometry y="120" width="193" height="30" as="geometry" />
        </mxCell>
        <mxCell id="dzqWY5fGvFbRRXMrWcJu-38" value="+ isCancelled: bool" style="text;strokeColor=none;fillColor=none;align=left;verticalAlign=middle;spacingLeft=4;spacingRight=4;overflow=hidden;points=[[0,0.5],[1,0.5]];portConstraint=eastwest;rotatable=0;whiteSpace=wrap;html=1;" parent="dzqWY5fGvFbRRXMrWcJu-20" vertex="1">
          <mxGeometry y="150" width="193" height="30" as="geometry" />
        </mxCell>
        <mxCell id="dzqWY5fGvFbRRXMrWcJu-41" value="+ isRefunded: bool" style="text;strokeColor=none;fillColor=none;align=left;verticalAlign=middle;spacingLeft=4;spacingRight=4;overflow=hidden;points=[[0,0.5],[1,0.5]];portConstraint=eastwest;rotatable=0;whiteSpace=wrap;html=1;" parent="dzqWY5fGvFbRRXMrWcJu-20" vertex="1">
          <mxGeometry y="180" width="193" height="30" as="geometry" />
        </mxCell>
        <mxCell id="xwhf7whDuyqqCBO_zV5I-19" value="" style="line;strokeWidth=1;fillColor=none;align=left;verticalAlign=middle;spacingTop=-1;spacingLeft=3;spacingRight=3;rotatable=0;labelPosition=right;points=[];portConstraint=eastwest;strokeColor=inherit;" vertex="1" parent="dzqWY5fGvFbRRXMrWcJu-20">
          <mxGeometry y="210" width="193" height="8" as="geometry" />
        </mxCell>
        <mxCell id="xwhf7whDuyqqCBO_zV5I-24" value="+ create(startDate: DateTime, endDate: DateTime, room: Room): Booking" style="text;strokeColor=none;fillColor=none;align=left;verticalAlign=middle;spacingLeft=4;spacingRight=4;overflow=hidden;points=[[0,0.5],[1,0.5]];portConstraint=eastwest;rotatable=0;whiteSpace=wrap;html=1;" vertex="1" parent="dzqWY5fGvFbRRXMrWcJu-20">
          <mxGeometry y="218" width="193" height="52" as="geometry" />
        </mxCell>
        <mxCell id="xwhf7whDuyqqCBO_zV5I-1" value="+ isRefundable(): bool" style="text;strokeColor=none;fillColor=none;align=left;verticalAlign=middle;spacingLeft=4;spacingRight=4;overflow=hidden;points=[[0,0.5],[1,0.5]];portConstraint=eastwest;rotatable=0;whiteSpace=wrap;html=1;" vertex="1" parent="dzqWY5fGvFbRRXMrWcJu-20">
          <mxGeometry y="270" width="193" height="30" as="geometry" />
        </mxCell>
        <mxCell id="xwhf7whDuyqqCBO_zV5I-2" value="+ pay(): void" style="text;strokeColor=none;fillColor=none;align=left;verticalAlign=middle;spacingLeft=4;spacingRight=4;overflow=hidden;points=[[0,0.5],[1,0.5]];portConstraint=eastwest;rotatable=0;whiteSpace=wrap;html=1;" vertex="1" parent="dzqWY5fGvFbRRXMrWcJu-20">
          <mxGeometry y="300" width="193" height="30" as="geometry" />
        </mxCell>
        <mxCell id="xwhf7whDuyqqCBO_zV5I-3" value="+ calculateTotalAmount(): decimal" style="text;strokeColor=none;fillColor=none;align=left;verticalAlign=middle;spacingLeft=4;spacingRight=4;overflow=hidden;points=[[0,0.5],[1,0.5]];portConstraint=eastwest;rotatable=0;whiteSpace=wrap;html=1;" vertex="1" parent="dzqWY5fGvFbRRXMrWcJu-20">
          <mxGeometry y="330" width="193" height="30" as="geometry" />
        </mxCell>
        <mxCell id="xwhf7whDuyqqCBO_zV5I-4" value="+ cancel(): void" style="text;strokeColor=none;fillColor=none;align=left;verticalAlign=middle;spacingLeft=4;spacingRight=4;overflow=hidden;points=[[0,0.5],[1,0.5]];portConstraint=eastwest;rotatable=0;whiteSpace=wrap;html=1;" vertex="1" parent="dzqWY5fGvFbRRXMrWcJu-20">
          <mxGeometry y="360" width="193" height="30" as="geometry" />
        </mxCell>
        <mxCell id="xwhf7whDuyqqCBO_zV5I-5" value="+ instantCancel(): void" style="text;strokeColor=none;fillColor=none;align=left;verticalAlign=middle;spacingLeft=4;spacingRight=4;overflow=hidden;points=[[0,0.5],[1,0.5]];portConstraint=eastwest;rotatable=0;whiteSpace=wrap;html=1;" vertex="1" parent="dzqWY5fGvFbRRXMrWcJu-20">
          <mxGeometry y="390" width="193" height="30" as="geometry" />
        </mxCell>
        <mxCell id="xwhf7whDuyqqCBO_zV5I-6" value="+ checkIn(): void" style="text;strokeColor=none;fillColor=none;align=left;verticalAlign=middle;spacingLeft=4;spacingRight=4;overflow=hidden;points=[[0,0.5],[1,0.5]];portConstraint=eastwest;rotatable=0;whiteSpace=wrap;html=1;" vertex="1" parent="dzqWY5fGvFbRRXMrWcJu-20">
          <mxGeometry y="420" width="193" height="30" as="geometry" />
        </mxCell>
        <mxCell id="xwhf7whDuyqqCBO_zV5I-7" value="+ checkOut(): void" style="text;strokeColor=none;fillColor=none;align=left;verticalAlign=middle;spacingLeft=4;spacingRight=4;overflow=hidden;points=[[0,0.5],[1,0.5]];portConstraint=eastwest;rotatable=0;whiteSpace=wrap;html=1;" vertex="1" parent="dzqWY5fGvFbRRXMrWcJu-20">
          <mxGeometry y="450" width="193" height="30" as="geometry" />
        </mxCell>
        <mxCell id="dzqWY5fGvFbRRXMrWcJu-45" style="edgeStyle=orthogonalEdgeStyle;rounded=0;orthogonalLoop=1;jettySize=auto;html=1;entryX=0;entryY=0.5;entryDx=0;entryDy=0;endArrow=none;endFill=0;" parent="1" source="dzqWY5fGvFbRRXMrWcJu-3" target="dzqWY5fGvFbRRXMrWcJu-37" edge="1">
          <mxGeometry relative="1" as="geometry" />
        </mxCell>
        <mxCell id="dzqWY5fGvFbRRXMrWcJu-51" value="1" style="text;html=1;align=center;verticalAlign=middle;resizable=0;points=[];autosize=1;strokeColor=none;fillColor=none;" parent="1" vertex="1">
          <mxGeometry x="397" y="100" width="30" height="30" as="geometry" />
        </mxCell>
        <mxCell id="dzqWY5fGvFbRRXMrWcJu-52" value="0..*" style="text;html=1;align=center;verticalAlign=middle;resizable=0;points=[];autosize=1;strokeColor=none;fillColor=none;" parent="1" vertex="1">
          <mxGeometry x="358" y="100" width="40" height="30" as="geometry" />
        </mxCell>
      </root>
    </mxGraphModel>
  </diagram>
</mxfile>
